<?xml version="1.0" encoding="utf-8"?>
<!-- Generator: Adobe Illustrator 16.0.0, SVG Export Plug-In . SVG Version: 6.00 Build 0)  -->
<!DOCTYPE svg PUBLIC "-//W3C//DTD SVG 1.1//EN" "http://www.w3.org/Graphics/SVG/1.1/DTD/svg11.dtd">
<svg version="1.1" id="Outlined_2_" xmlns="http://www.w3.org/2000/svg" xmlns:xlink="http://www.w3.org/1999/xlink" x="0px"
	 y="0px" width="20px" height="20px" viewBox="0 0 32 32" enable-background="new 0 0 32 32" xml:space="preserve">
<g>
	<path d="M21,12l-0.5,3H16v13h-4c0,0,0-7.32,0-13h-2v-3h2V8c0,0,0-5,5-5h4v3h-2c-3,0-3,3-3,3v3H21z"/>
</g>
<g>
	<path  d="M21,3v3h-2c-3,0-3,3-3,3v3h5l-0.5,3H16v13h-4c0,0,0-7.32,0-13h-2v-3h2V8c0,0,0-5,5-5H21 M22,2h-5
		c-4.746,0-6,3.925-6,6v3H9v5h2v13h6V16h4.347l0.834-5H17V9c0.008-0.463,0.174-2,2-2h3V2L22,2z"/>
</g>
</svg>
